<svg width="620" height="25" viewBox="0 0 620 25" fill="none" xmlns="http://www.w3.org/2000/svg">
<path d="M-189 23.4546L-120.458 5.08889C-100.112 -0.36298 -78.6884 -0.36298 -58.3417 5.08889L-20.8583 15.1325C-0.511637 20.5844 20.9116 20.5844 41.2583 15.1325L78.7417 5.08889C99.0884 -0.362981 120.512 -0.36298 140.858 5.08889L178.342 15.1325C198.688 20.5844 220.112 20.5844 240.458 15.1325L277.942 5.08889C298.288 -0.36298 319.712 -0.362978 340.058 5.08889L377.542 15.1325C397.888 20.5844 419.312 20.5844 439.658 15.1325L477.142 5.08889C497.488 -0.362978 518.912 -0.362978 539.258 5.08889L576.742 15.1325C597.088 20.5844 618.512 20.5844 638.858 15.1325L676.342 5.08889C696.688 -0.362978 718.112 -0.362978 738.458 5.08889L807 23.4546" stroke="white" stroke-opacity="0.15" stroke-width="2"/>
</svg>
