<svg width="1286" height="963" viewBox="0 0 1286 963" fill="none" xmlns="http://www.w3.org/2000/svg">
<g opacity="0.32">
<g clip-path="url(#clip0_347_2383)">
<circle cx="559.29" cy="179.24" r="1.71768" transform="rotate(132.83 559.29 179.24)" fill="white"/>
<circle cx="646.844" cy="260.392" r="1.71768" transform="rotate(132.83 646.844 260.392)" fill="white"/>
<circle cx="506.561" cy="231.07" r="1.71768" transform="rotate(132.83 506.561 231.07)" fill="white"/>
<circle cx="518.904" cy="155.851" r="1.71768" transform="rotate(132.83 518.904 155.851)" fill="white"/>
<circle cx="606.453" cy="237.007" r="1.71768" transform="rotate(132.83 606.453 237.007)" fill="white" fill-opacity="0.1"/>
<circle cx="554.399" cy="242.63" r="1.71768" transform="rotate(132.83 554.399 242.63)" fill="#8C21FF"/>
<circle cx="507.791" cy="199.423" r="0.858838" transform="rotate(132.83 507.791 199.423)" fill="white"/>
<circle cx="568.606" cy="136.344" r="0.858838" transform="rotate(132.83 568.606 136.344)" fill="white"/>
<circle cx="656.156" cy="217.5" r="0.858838" transform="rotate(132.83 656.156 217.5)" fill="white" fill-opacity="0.1"/>
<circle cx="593.181" cy="223.533" r="0.858838" transform="rotate(132.83 593.181 223.533)" fill="white"/>
<circle cx="539.58" cy="204.294" r="0.858838" transform="rotate(132.83 539.58 204.294)" fill="white"/>
<circle cx="562.238" cy="256.914" r="0.858838" transform="rotate(132.83 562.238 256.914)" fill="white" fill-opacity="0.1"/>
<circle cx="528.136" cy="174.948" r="0.858838" transform="rotate(132.83 528.136 174.948)" fill="white"/>
<circle cx="615.686" cy="256.105" r="0.858838" transform="rotate(132.83 615.686 256.105)" fill="white" fill-opacity="0.1"/>
<circle cx="570.242" cy="211.642" r="0.858838" transform="rotate(132.83 570.242 211.642)" fill="#8C21FF"/>
<circle cx="537.861" cy="142.981" r="0.858838" transform="rotate(132.83 537.861 142.981)" fill="white"/>
<circle cx="625.415" cy="224.133" r="0.858838" transform="rotate(132.83 625.415 224.133)" fill="white"/>
<circle cx="599.929" cy="177.089" r="0.858838" transform="rotate(132.83 599.929 177.089)" fill="white" fill-opacity="0.1"/>
<circle cx="687.479" cy="258.245" r="0.858838" transform="rotate(132.83 687.479 258.245)" fill="white"/>
</g>
</g>
<g opacity="0.32">
<g clip-path="url(#clip1_347_2383)">
<circle cx="517.773" cy="144.045" r="1.71768" transform="rotate(132.83 517.773 144.045)" fill="white"/>
<circle cx="605.326" cy="225.196" r="1.71768" transform="rotate(132.83 605.326 225.196)" fill="white"/>
<circle cx="465.044" cy="195.875" r="1.71768" transform="rotate(132.83 465.044 195.875)" fill="white"/>
<circle cx="477.387" cy="120.656" r="1.71768" transform="rotate(132.83 477.387 120.656)" fill="white"/>
<circle cx="564.936" cy="201.812" r="1.71768" transform="rotate(132.83 564.936 201.812)" fill="white" fill-opacity="0.1"/>
<circle cx="512.882" cy="207.435" r="1.71768" transform="rotate(132.83 512.882 207.435)" fill="#8C21FF"/>
<circle cx="466.274" cy="164.228" r="0.858838" transform="rotate(132.83 466.274 164.228)" fill="white"/>
<circle cx="527.089" cy="101.148" r="0.858838" transform="rotate(132.83 527.089 101.148)" fill="white"/>
<circle cx="614.639" cy="182.304" r="0.858838" transform="rotate(132.83 614.639 182.304)" fill="white" fill-opacity="0.1"/>
<circle cx="551.664" cy="188.337" r="0.858838" transform="rotate(132.83 551.664 188.337)" fill="white"/>
<circle cx="498.063" cy="169.098" r="0.858838" transform="rotate(132.83 498.063 169.098)" fill="white"/>
<circle cx="520.721" cy="221.718" r="0.858838" transform="rotate(132.83 520.721 221.718)" fill="white" fill-opacity="0.1"/>
<circle cx="486.619" cy="139.753" r="0.858838" transform="rotate(132.83 486.619 139.753)" fill="white"/>
<circle cx="574.169" cy="220.909" r="0.858838" transform="rotate(132.83 574.169 220.909)" fill="white" fill-opacity="0.1"/>
<circle cx="528.725" cy="176.447" r="0.858838" transform="rotate(132.83 528.725 176.447)" fill="#8C21FF"/>
<circle cx="496.343" cy="107.786" r="0.858838" transform="rotate(132.83 496.343 107.786)" fill="white"/>
<circle cx="583.898" cy="188.938" r="0.858838" transform="rotate(132.83 583.898 188.938)" fill="white"/>
<circle cx="558.412" cy="141.894" r="0.858838" transform="rotate(132.83 558.412 141.894)" fill="white" fill-opacity="0.1"/>
<circle cx="645.962" cy="223.05" r="0.858838" transform="rotate(132.83 645.962 223.05)" fill="white"/>
</g>
</g>
<g opacity="0.71">
<g clip-path="url(#clip2_347_2383)">
<circle cx="611.831" cy="105.639" r="1.93005" transform="rotate(132.83 611.831 105.639)" fill="white"/>
<circle cx="710.209" cy="196.824" r="1.93005" transform="rotate(132.83 710.209 196.824)" fill="white"/>
<circle cx="552.583" cy="163.877" r="1.93005" transform="rotate(132.83 552.583 163.877)" fill="white"/>
<circle cx="566.451" cy="79.3584" r="1.93005" transform="rotate(132.83 566.451 79.3584)" fill="white"/>
<circle cx="664.825" cy="170.548" r="1.93005" transform="rotate(132.83 664.825 170.548)" fill="white" fill-opacity="0.1"/>
<circle cx="606.335" cy="176.866" r="1.93005" transform="rotate(132.83 606.335 176.866)" fill="#8C21FF"/>
<circle cx="553.964" cy="128.317" r="0.965023" transform="rotate(132.83 553.964 128.317)" fill="white"/>
<circle cx="622.299" cy="57.439" r="0.965023" transform="rotate(132.83 622.299 57.439)" fill="white"/>
<circle cx="720.673" cy="148.629" r="0.965023" transform="rotate(132.83 720.673 148.629)" fill="white" fill-opacity="0.1"/>
<circle cx="649.912" cy="155.408" r="0.965023" transform="rotate(132.83 649.912 155.408)" fill="white"/>
<circle cx="589.683" cy="133.79" r="0.965023" transform="rotate(132.83 589.683 133.79)" fill="white"/>
<circle cx="615.143" cy="192.916" r="0.965023" transform="rotate(132.83 615.143 192.916)" fill="white" fill-opacity="0.1"/>
<circle cx="576.825" cy="100.816" r="0.965023" transform="rotate(132.83 576.825 100.816)" fill="white"/>
<circle cx="675.2" cy="192.007" r="0.965023" transform="rotate(132.83 675.2 192.007)" fill="white" fill-opacity="0.1"/>
<circle cx="624.137" cy="142.047" r="0.965023" transform="rotate(132.83 624.137 142.047)" fill="#8C21FF"/>
<circle cx="587.751" cy="64.8971" r="0.965023" transform="rotate(132.83 587.751 64.8971)" fill="white"/>
<circle cx="686.131" cy="156.083" r="0.965023" transform="rotate(132.83 686.131 156.083)" fill="white"/>
<circle cx="657.494" cy="103.222" r="0.965023" transform="rotate(132.83 657.494 103.222)" fill="white" fill-opacity="0.1"/>
<circle cx="755.869" cy="194.412" r="0.965023" transform="rotate(132.83 755.869 194.412)" fill="white"/>
</g>
</g>
<g opacity="0.71">
<g clip-path="url(#clip3_347_2383)">
<circle cx="569.365" cy="78.3392" r="1.93005" transform="rotate(132.83 569.365 78.3392)" fill="white"/>
<circle cx="667.743" cy="169.524" r="1.93005" transform="rotate(132.83 667.743 169.524)" fill="white"/>
<circle cx="510.117" cy="136.577" r="1.93005" transform="rotate(132.83 510.117 136.577)" fill="white"/>
<circle cx="523.985" cy="52.0584" r="1.93005" transform="rotate(132.83 523.985 52.0584)" fill="white"/>
<circle cx="622.36" cy="143.248" r="1.93005" transform="rotate(132.83 622.36 143.248)" fill="white" fill-opacity="0.1"/>
<circle cx="563.87" cy="149.566" r="1.93005" transform="rotate(132.83 563.87 149.566)" fill="#8C21FF"/>
<circle cx="511.499" cy="101.017" r="0.965023" transform="rotate(132.83 511.499 101.017)" fill="white"/>
<circle cx="579.833" cy="30.139" r="0.965023" transform="rotate(132.83 579.833 30.139)" fill="white"/>
<circle cx="678.207" cy="121.329" r="0.965023" transform="rotate(132.83 678.207 121.329)" fill="white" fill-opacity="0.1"/>
<circle cx="607.446" cy="128.108" r="0.965023" transform="rotate(132.83 607.446 128.108)" fill="white"/>
<circle cx="547.217" cy="106.49" r="0.965023" transform="rotate(132.83 547.217 106.49)" fill="white"/>
<circle cx="572.677" cy="165.616" r="0.965023" transform="rotate(132.83 572.677 165.616)" fill="white" fill-opacity="0.1"/>
<circle cx="534.359" cy="73.5164" r="0.965023" transform="rotate(132.83 534.359 73.5164)" fill="white"/>
<circle cx="632.734" cy="164.707" r="0.965023" transform="rotate(132.83 632.734 164.707)" fill="white" fill-opacity="0.1"/>
<circle cx="581.671" cy="114.747" r="0.965023" transform="rotate(132.83 581.671 114.747)" fill="#8C21FF"/>
<circle cx="545.286" cy="37.597" r="0.965023" transform="rotate(132.83 545.286 37.597)" fill="white"/>
<circle cx="643.665" cy="128.783" r="0.965023" transform="rotate(132.83 643.665 128.783)" fill="white"/>
<circle cx="615.028" cy="75.9221" r="0.965023" transform="rotate(132.83 615.028 75.9221)" fill="white" fill-opacity="0.1"/>
<circle cx="713.403" cy="167.112" r="0.965023" transform="rotate(132.83 713.403 167.112)" fill="white"/>
</g>
</g>
<g opacity="0.78">
<g opacity="0.32">
<g clip-path="url(#clip4_347_2383)">
<circle cx="636.624" cy="212.811" r="1.09064" transform="rotate(132.83 636.624 212.811)" fill="white"/>
<circle cx="692.208" cy="264.331" r="1.09064" transform="rotate(132.83 692.208 264.331)" fill="white"/>
<circle cx="603.149" cy="245.716" r="1.09064" transform="rotate(132.83 603.149 245.716)" fill="white"/>
<circle cx="610.985" cy="197.962" r="1.09064" transform="rotate(132.83 610.985 197.962)" fill="white"/>
<circle cx="666.567" cy="249.485" r="1.09064" transform="rotate(132.83 666.567 249.485)" fill="white" fill-opacity="0.1"/>
<circle cx="633.519" cy="253.055" r="1.09064" transform="rotate(132.83 633.519 253.055)" fill="#8C21FF"/>
<circle cx="603.93" cy="225.624" r="0.545318" transform="rotate(132.83 603.93 225.624)" fill="white"/>
<circle cx="642.539" cy="185.578" r="0.545318" transform="rotate(132.83 642.539 185.578)" fill="white"/>
<circle cx="698.12" cy="237.1" r="0.545318" transform="rotate(132.83 698.12 237.1)" fill="white" fill-opacity="0.1"/>
<circle cx="658.14" cy="240.93" r="0.545318" transform="rotate(132.83 658.14 240.93)" fill="white"/>
<circle cx="624.111" cy="228.716" r="0.545318" transform="rotate(132.83 624.111 228.716)" fill="white"/>
<circle cx="638.496" cy="262.123" r="0.545318" transform="rotate(132.83 638.496 262.123)" fill="white" fill-opacity="0.1"/>
<circle cx="616.846" cy="210.086" r="0.545318" transform="rotate(132.83 616.846 210.086)" fill="white"/>
<circle cx="672.428" cy="261.609" r="0.545318" transform="rotate(132.83 672.428 261.609)" fill="white" fill-opacity="0.1"/>
<circle cx="643.578" cy="233.381" r="0.545318" transform="rotate(132.83 643.578 233.381)" fill="#8C21FF"/>
<circle cx="623.019" cy="189.791" r="0.545318" transform="rotate(132.83 623.019 189.791)" fill="white"/>
<circle cx="678.604" cy="241.312" r="0.545318" transform="rotate(132.83 678.604 241.312)" fill="white"/>
<circle cx="662.425" cy="211.445" r="0.545318" transform="rotate(132.83 662.425 211.445)" fill="white" fill-opacity="0.1"/>
<circle cx="718.007" cy="262.968" r="0.545318" transform="rotate(132.83 718.007 262.968)" fill="white"/>
</g>
</g>
<g opacity="0.32">
<g clip-path="url(#clip5_347_2383)">
<circle cx="610.266" cy="190.467" r="1.09064" transform="rotate(132.83 610.266 190.467)" fill="white"/>
<circle cx="665.85" cy="241.987" r="1.09064" transform="rotate(132.83 665.85 241.987)" fill="white"/>
<circle cx="576.791" cy="223.371" r="1.09064" transform="rotate(132.83 576.791 223.371)" fill="white"/>
<circle cx="584.627" cy="175.618" r="1.09064" transform="rotate(132.83 584.627 175.618)" fill="white"/>
<circle cx="640.209" cy="227.141" r="1.09064" transform="rotate(132.83 640.209 227.141)" fill="white" fill-opacity="0.1"/>
<circle cx="607.161" cy="230.71" r="1.09064" transform="rotate(132.83 607.161 230.71)" fill="#8C21FF"/>
<circle cx="577.572" cy="203.28" r="0.545318" transform="rotate(132.83 577.572 203.28)" fill="white"/>
<circle cx="616.181" cy="163.233" r="0.545318" transform="rotate(132.83 616.181 163.233)" fill="white"/>
<circle cx="671.763" cy="214.756" r="0.545318" transform="rotate(132.83 671.763 214.756)" fill="white" fill-opacity="0.1"/>
<circle cx="631.782" cy="218.586" r="0.545318" transform="rotate(132.83 631.782 218.586)" fill="white"/>
<circle cx="597.753" cy="206.372" r="0.545318" transform="rotate(132.83 597.753 206.372)" fill="white"/>
<circle cx="612.138" cy="239.779" r="0.545318" transform="rotate(132.83 612.138 239.779)" fill="white" fill-opacity="0.1"/>
<circle cx="590.488" cy="187.742" r="0.545318" transform="rotate(132.83 590.488 187.742)" fill="white"/>
<circle cx="646.07" cy="239.265" r="0.545318" transform="rotate(132.83 646.07 239.265)" fill="white" fill-opacity="0.1"/>
<circle cx="617.22" cy="211.037" r="0.545318" transform="rotate(132.83 617.22 211.037)" fill="#8C21FF"/>
<circle cx="596.661" cy="167.447" r="0.545318" transform="rotate(132.83 596.661 167.447)" fill="white"/>
<circle cx="652.246" cy="218.968" r="0.545318" transform="rotate(132.83 652.246 218.968)" fill="white"/>
<circle cx="636.066" cy="189.101" r="0.545318" transform="rotate(132.83 636.066 189.101)" fill="white" fill-opacity="0.1"/>
<circle cx="691.649" cy="240.624" r="0.545318" transform="rotate(132.83 691.649 240.624)" fill="white"/>
</g>
</g>
<g opacity="0.71">
<g clip-path="url(#clip6_347_2383)">
<circle cx="669.98" cy="166.084" r="1.22548" transform="rotate(132.83 669.98 166.084)" fill="white"/>
<circle cx="732.437" cy="223.974" r="1.22548" transform="rotate(132.83 732.437 223.974)" fill="white"/>
<circle cx="632.365" cy="203.057" r="1.22548" transform="rotate(132.83 632.365 203.057)" fill="white"/>
<circle cx="641.17" cy="149.4" r="1.22548" transform="rotate(132.83 641.17 149.4)" fill="white"/>
<circle cx="703.624" cy="207.293" r="1.22548" transform="rotate(132.83 703.624 207.293)" fill="white" fill-opacity="0.1"/>
<circle cx="666.491" cy="211.304" r="1.22548" transform="rotate(132.83 666.491 211.304)" fill="#8C21FF"/>
<circle cx="633.243" cy="180.482" r="0.61274" transform="rotate(132.83 633.243 180.482)" fill="white"/>
<circle cx="676.626" cy="135.484" r="0.61274" transform="rotate(132.83 676.626 135.484)" fill="white"/>
<circle cx="739.08" cy="193.377" r="0.61274" transform="rotate(132.83 739.08 193.377)" fill="white" fill-opacity="0.1"/>
<circle cx="694.156" cy="197.68" r="0.61274" transform="rotate(132.83 694.156 197.68)" fill="white"/>
<circle cx="655.92" cy="183.956" r="0.61274" transform="rotate(132.83 655.92 183.956)" fill="white"/>
<circle cx="672.083" cy="221.493" r="0.61274" transform="rotate(132.83 672.083 221.493)" fill="white" fill-opacity="0.1"/>
<circle cx="647.757" cy="163.023" r="0.61274" transform="rotate(132.83 647.757 163.023)" fill="white"/>
<circle cx="710.21" cy="220.916" r="0.61274" transform="rotate(132.83 710.21 220.916)" fill="white" fill-opacity="0.1"/>
<circle cx="677.793" cy="189.198" r="0.61274" transform="rotate(132.83 677.793 189.198)" fill="#8C21FF"/>
<circle cx="654.693" cy="140.219" r="0.61274" transform="rotate(132.83 654.693 140.219)" fill="white"/>
<circle cx="717.15" cy="198.109" r="0.61274" transform="rotate(132.83 717.15 198.109)" fill="white"/>
<circle cx="698.97" cy="164.55" r="0.61274" transform="rotate(132.83 698.97 164.55)" fill="white" fill-opacity="0.1"/>
<circle cx="761.424" cy="222.443" r="0.61274" transform="rotate(132.83 761.424 222.443)" fill="white"/>
</g>
</g>
<g opacity="0.71">
<g clip-path="url(#clip7_347_2383)">
<circle cx="643.021" cy="148.753" r="1.22548" transform="rotate(132.83 643.021 148.753)" fill="white"/>
<circle cx="705.477" cy="206.642" r="1.22548" transform="rotate(132.83 705.477 206.642)" fill="white"/>
<circle cx="605.406" cy="185.726" r="1.22548" transform="rotate(132.83 605.406 185.726)" fill="white"/>
<circle cx="614.211" cy="132.068" r="1.22548" transform="rotate(132.83 614.211 132.068)" fill="white"/>
<circle cx="676.665" cy="189.961" r="1.22548" transform="rotate(132.83 676.665 189.961)" fill="white" fill-opacity="0.1"/>
<circle cx="639.532" cy="193.972" r="1.22548" transform="rotate(132.83 639.532 193.972)" fill="#8C21FF"/>
<circle cx="606.284" cy="163.15" r="0.61274" transform="rotate(132.83 606.284 163.15)" fill="white"/>
<circle cx="649.666" cy="118.152" r="0.61274" transform="rotate(132.83 649.666 118.152)" fill="white"/>
<circle cx="712.12" cy="176.045" r="0.61274" transform="rotate(132.83 712.12 176.045)" fill="white" fill-opacity="0.1"/>
<circle cx="667.197" cy="180.349" r="0.61274" transform="rotate(132.83 667.197 180.349)" fill="white"/>
<circle cx="628.96" cy="166.624" r="0.61274" transform="rotate(132.83 628.96 166.624)" fill="white"/>
<circle cx="645.123" cy="204.161" r="0.61274" transform="rotate(132.83 645.123 204.161)" fill="white" fill-opacity="0.1"/>
<circle cx="620.797" cy="145.691" r="0.61274" transform="rotate(132.83 620.797 145.691)" fill="white"/>
<circle cx="683.251" cy="203.584" r="0.61274" transform="rotate(132.83 683.251 203.584)" fill="white" fill-opacity="0.1"/>
<circle cx="650.833" cy="171.866" r="0.61274" transform="rotate(132.83 650.833 171.866)" fill="#8C21FF"/>
<circle cx="627.734" cy="122.887" r="0.61274" transform="rotate(132.83 627.734 122.887)" fill="white"/>
<circle cx="690.191" cy="180.777" r="0.61274" transform="rotate(132.83 690.191 180.777)" fill="white"/>
<circle cx="672.011" cy="147.218" r="0.61274" transform="rotate(132.83 672.011 147.218)" fill="white" fill-opacity="0.1"/>
<circle cx="734.465" cy="205.111" r="0.61274" transform="rotate(132.83 734.465 205.111)" fill="white"/>
</g>
</g>
<g clip-path="url(#clip8_347_2383)">
<circle cx="676.772" cy="100.868" r="1.09064" transform="rotate(130.827 676.772 100.868)" fill="white"/>
<circle cx="734.122" cy="150.414" r="1.09064" transform="rotate(130.827 734.122 150.414)" fill="white"/>
<circle cx="644.467" cy="134.922" r="1.09064" transform="rotate(130.827 644.467 134.922)" fill="white"/>
<circle cx="650.63" cy="86.9238" r="1.09064" transform="rotate(130.827 650.63 86.9238)" fill="white"/>
<circle cx="707.977" cy="136.473" r="1.09064" transform="rotate(130.827 707.977 136.473)" fill="white" fill-opacity="0.1"/>
<circle cx="675.075" cy="141.195" r="1.09064" transform="rotate(130.827 675.075 141.195)" fill="#8C21FF"/>
<circle cx="644.42" cy="176.675" r="1.09064" transform="rotate(130.827 644.42 176.675)" fill="white"/>
<circle cx="644.545" cy="114.815" r="0.545318" transform="rotate(130.827 644.545 114.815)" fill="white"/>
<circle cx="701.893" cy="164.365" r="0.545318" transform="rotate(130.827 701.893 164.365)" fill="white"/>
<circle cx="681.732" cy="73.4444" r="0.545318" transform="rotate(130.827 681.732 73.4444)" fill="white"/>
<circle cx="739.08" cy="122.994" r="0.545318" transform="rotate(130.827 739.08 122.994)" fill="white" fill-opacity="0.1"/>
<circle cx="699.258" cy="128.218" r="0.545318" transform="rotate(130.827 699.258 128.218)" fill="white"/>
<circle cx="756.605" cy="177.768" r="0.545318" transform="rotate(130.827 756.605 177.768)" fill="white"/>
<circle cx="664.822" cy="117.2" r="0.545318" transform="rotate(130.827 664.822 117.2)" fill="white"/>
<circle cx="722.17" cy="166.75" r="0.545318" transform="rotate(130.827 722.17 166.75)" fill="white"/>
<circle cx="680.366" cy="150.084" r="0.545318" transform="rotate(130.827 680.366 150.084)" fill="white" fill-opacity="0.1"/>
<circle cx="656.911" cy="98.8355" r="0.545318" transform="rotate(130.827 656.911 98.8355)" fill="white"/>
<circle cx="714.259" cy="148.385" r="0.545318" transform="rotate(130.827 714.259 148.385)" fill="white" fill-opacity="0.1"/>
<circle cx="687.956" cy="174.658" r="0.545318" transform="rotate(130.827 687.956 174.658)" fill="white"/>
<circle cx="684.44" cy="121.183" r="0.545318" transform="rotate(130.827 684.44 121.183)" fill="#8C21FF"/>
<circle cx="741.788" cy="170.732" r="0.545318" transform="rotate(130.827 741.788 170.732)" fill="white"/>
<circle cx="662.371" cy="78.3376" r="0.545318" transform="rotate(130.827 662.371 78.3376)" fill="white"/>
<circle cx="719.723" cy="127.885" r="0.545318" transform="rotate(130.827 719.723 127.885)" fill="white"/>
<circle cx="653.876" cy="163.229" r="0.545318" transform="rotate(130.827 653.876 163.229)" fill="white"/>
<circle cx="702.509" cy="98.6016" r="0.545318" transform="rotate(130.827 702.509 98.6016)" fill="white" fill-opacity="0.1"/>
<circle cx="759.857" cy="148.151" r="0.545318" transform="rotate(130.827 759.857 148.151)" fill="white"/>
<g clip-path="url(#clip9_347_2383)">
<circle cx="715.153" cy="68.7844" r="1.09064" transform="rotate(130.827 715.153 68.7844)" fill="white"/>
<circle cx="772.503" cy="118.331" r="1.09064" transform="rotate(130.827 772.503 118.331)" fill="white"/>
<circle cx="682.847" cy="102.839" r="1.09064" transform="rotate(130.827 682.847 102.839)" fill="white"/>
<circle cx="689.01" cy="54.8404" r="1.09064" transform="rotate(130.827 689.01 54.8404)" fill="white"/>
<circle cx="746.358" cy="104.39" r="1.09064" transform="rotate(130.827 746.358 104.39)" fill="white" fill-opacity="0.1"/>
<circle cx="713.456" cy="109.112" r="1.09064" transform="rotate(130.827 713.456 109.112)" fill="#8C21FF"/>
<circle cx="682.801" cy="144.592" r="1.09064" transform="rotate(130.827 682.801 144.592)" fill="white"/>
<circle cx="682.926" cy="82.732" r="0.545318" transform="rotate(130.827 682.926 82.732)" fill="white"/>
<circle cx="740.274" cy="132.281" r="0.545318" transform="rotate(130.827 740.274 132.281)" fill="white"/>
<circle cx="720.113" cy="41.361" r="0.545318" transform="rotate(130.827 720.113 41.361)" fill="white"/>
<circle cx="777.461" cy="90.9105" r="0.545318" transform="rotate(130.827 777.461 90.9105)" fill="white" fill-opacity="0.1"/>
<circle cx="737.639" cy="96.135" r="0.545318" transform="rotate(130.827 737.639 96.135)" fill="white"/>
<circle cx="794.986" cy="145.684" r="0.545318" transform="rotate(130.827 794.986 145.684)" fill="white"/>
<circle cx="703.203" cy="85.1171" r="0.545318" transform="rotate(130.827 703.203 85.1171)" fill="white"/>
<circle cx="760.551" cy="134.667" r="0.545318" transform="rotate(130.827 760.551 134.667)" fill="white"/>
<circle cx="718.746" cy="118.001" r="0.545318" transform="rotate(130.827 718.746 118.001)" fill="white" fill-opacity="0.1"/>
<circle cx="695.292" cy="66.7521" r="0.545318" transform="rotate(130.827 695.292 66.7521)" fill="white"/>
<circle cx="752.64" cy="116.302" r="0.545318" transform="rotate(130.827 752.64 116.302)" fill="white" fill-opacity="0.1"/>
<circle cx="726.337" cy="142.574" r="0.545318" transform="rotate(130.827 726.337 142.574)" fill="white"/>
<circle cx="722.821" cy="89.0994" r="0.545318" transform="rotate(130.827 722.821 89.0994)" fill="#8C21FF"/>
<circle cx="780.169" cy="138.649" r="0.545318" transform="rotate(130.827 780.169 138.649)" fill="white"/>
<circle cx="700.752" cy="46.2543" r="0.545318" transform="rotate(130.827 700.752 46.2543)" fill="white"/>
<circle cx="758.103" cy="95.8012" r="0.545318" transform="rotate(130.827 758.103 95.8012)" fill="white"/>
<circle cx="692.257" cy="131.145" r="0.545318" transform="rotate(130.827 692.257 131.145)" fill="white"/>
<circle cx="740.89" cy="66.5183" r="0.545318" transform="rotate(130.827 740.89 66.5183)" fill="white" fill-opacity="0.1"/>
<circle cx="798.238" cy="116.068" r="0.545318" transform="rotate(130.827 798.238 116.068)" fill="white"/>
</g>
</g>
</g>
<g clip-path="url(#clip10_347_2383)">
<circle cx="622.529" cy="2.91354" r="1.71768" transform="rotate(130.827 622.529 2.91354)" fill="white"/>
<circle cx="712.864" cy="80.9566" r="1.71768" transform="rotate(130.827 712.864 80.9566)" fill="white"/>
<circle cx="571.643" cy="56.5538" r="1.71768" transform="rotate(130.827 571.643 56.5538)" fill="white"/>
<circle cx="671.682" cy="58.9973" r="1.71768" transform="rotate(130.827 671.682 58.9973)" fill="white" fill-opacity="0.1"/>
<circle cx="619.856" cy="66.4354" r="1.71768" transform="rotate(130.827 619.856 66.4354)" fill="#8C21FF"/>
<circle cx="571.57" cy="122.321" r="1.71768" transform="rotate(130.827 571.57 122.321)" fill="white"/>
<circle cx="571.767" cy="24.8831" r="0.858838" transform="rotate(130.827 571.767 24.8831)" fill="white"/>
<circle cx="662.099" cy="102.931" r="0.858838" transform="rotate(130.827 662.099 102.931)" fill="white"/>
<circle cx="720.672" cy="37.7654" r="0.858838" transform="rotate(130.827 720.672 37.7654)" fill="white" fill-opacity="0.1"/>
<circle cx="657.947" cy="45.9947" r="0.858838" transform="rotate(130.827 657.947 45.9947)" fill="white"/>
<circle cx="748.278" cy="124.042" r="0.858838" transform="rotate(130.827 748.278 124.042)" fill="white"/>
<circle cx="603.706" cy="28.6399" r="0.858838" transform="rotate(130.827 603.706 28.6399)" fill="white"/>
<circle cx="694.038" cy="106.688" r="0.858838" transform="rotate(130.827 694.038 106.688)" fill="white"/>
<circle cx="628.189" cy="80.4363" r="0.858838" transform="rotate(130.827 628.189 80.4363)" fill="white" fill-opacity="0.1"/>
<circle cx="591.245" cy="-0.287619" r="0.858838" transform="rotate(130.827 591.245 -0.287619)" fill="white"/>
<circle cx="681.576" cy="77.7605" r="0.858838" transform="rotate(130.827 681.576 77.7605)" fill="white" fill-opacity="0.1"/>
<circle cx="640.146" cy="119.144" r="0.858838" transform="rotate(130.827 640.146 119.144)" fill="white"/>
<circle cx="634.607" cy="34.9126" r="0.858838" transform="rotate(130.827 634.607 34.9126)" fill="#8C21FF"/>
<circle cx="724.939" cy="112.96" r="0.858838" transform="rotate(130.827 724.939 112.96)" fill="white"/>
<circle cx="690.182" cy="45.469" r="0.858838" transform="rotate(130.827 690.182 45.469)" fill="white"/>
<circle cx="586.465" cy="101.141" r="0.858838" transform="rotate(130.827 586.465 101.141)" fill="white"/>
<circle cx="663.068" cy="-0.655928" r="0.858838" transform="rotate(130.827 663.068 -0.655928)" fill="white" fill-opacity="0.1"/>
<circle cx="753.4" cy="77.3917" r="0.858838" transform="rotate(130.827 753.4 77.3917)" fill="white"/>
<g clip-path="url(#clip11_347_2383)">
<circle cx="773.318" cy="30.4206" r="1.71768" transform="rotate(130.827 773.318 30.4206)" fill="white"/>
<circle cx="632.098" cy="6.01775" r="1.71768" transform="rotate(130.827 632.098 6.01775)" fill="white"/>
<circle cx="732.136" cy="8.46136" r="1.71768" transform="rotate(130.827 732.136 8.46136)" fill="white" fill-opacity="0.1"/>
<circle cx="680.311" cy="15.8994" r="1.71768" transform="rotate(130.827 680.311 15.8994)" fill="#8C21FF"/>
<circle cx="632.025" cy="71.7852" r="1.71768" transform="rotate(130.827 632.025 71.7852)" fill="white"/>
<circle cx="722.553" cy="52.3947" r="0.858838" transform="rotate(130.827 722.553 52.3947)" fill="white"/>
<circle cx="808.732" cy="73.5063" r="0.858838" transform="rotate(130.827 808.732 73.5063)" fill="white"/>
<circle cx="754.492" cy="56.1518" r="0.858838" transform="rotate(130.827 754.492 56.1518)" fill="white"/>
<circle cx="688.644" cy="29.9003" r="0.858838" transform="rotate(130.827 688.644 29.9003)" fill="white" fill-opacity="0.1"/>
<circle cx="742.031" cy="27.2245" r="0.858838" transform="rotate(130.827 742.031 27.2245)" fill="white" fill-opacity="0.1"/>
<circle cx="700.6" cy="68.6077" r="0.858838" transform="rotate(130.827 700.6 68.6077)" fill="white"/>
<circle cx="785.393" cy="62.4245" r="0.858838" transform="rotate(130.827 785.393 62.4245)" fill="white"/>
<circle cx="646.919" cy="50.6049" r="0.858838" transform="rotate(130.827 646.919 50.6049)" fill="white"/>
<circle cx="813.855" cy="26.8557" r="0.858838" transform="rotate(130.827 813.855 26.8557)" fill="white"/>
</g>
</g>
<g clip-path="url(#clip12_347_2383)">
<circle cx="1.71768" cy="1.71768" r="1.71768" transform="matrix(0.653784 0.756681 0.756681 -0.653784 850.353 2.73678)" fill="white"/>
<circle cx="1.71768" cy="1.71768" r="1.71768" transform="matrix(0.653784 0.756681 0.756681 -0.653784 760.018 80.7799)" fill="white"/>
<circle cx="1.71768" cy="1.71768" r="1.71768" transform="matrix(0.653784 0.756681 0.756681 -0.653784 901.239 56.377)" fill="white"/>
<circle cx="1.71768" cy="1.71768" r="1.71768" transform="matrix(0.653784 0.756681 0.756681 -0.653784 801.2 58.8206)" fill="white" fill-opacity="0.1"/>
<circle cx="1.71768" cy="1.71768" r="1.71768" transform="matrix(0.653784 0.756681 0.756681 -0.653784 853.026 66.2587)" fill="#8C21FF"/>
<circle cx="1.71768" cy="1.71768" r="1.71768" transform="matrix(0.653784 0.756681 0.756681 -0.653784 901.312 122.144)" fill="white"/>
<circle cx="0.858838" cy="0.858838" r="0.858838" transform="matrix(0.653784 0.756681 0.756681 -0.653784 902.327 24.7947)" fill="white"/>
<circle cx="0.858838" cy="0.858838" r="0.858838" transform="matrix(0.653784 0.756681 0.756681 -0.653784 811.995 102.842)" fill="white"/>
<circle cx="0.858838" cy="0.858838" r="0.858838" transform="matrix(0.653784 0.756681 0.756681 -0.653784 753.421 37.677)" fill="white" fill-opacity="0.1"/>
<circle cx="0.858838" cy="0.858838" r="0.858838" transform="matrix(0.653784 0.756681 0.756681 -0.653784 816.147 45.9063)" fill="white"/>
<circle cx="0.858838" cy="0.858838" r="0.858838" transform="matrix(0.653784 0.756681 0.756681 -0.653784 725.816 123.954)" fill="white"/>
<circle cx="0.858838" cy="0.858838" r="0.858838" transform="matrix(0.653784 0.756681 0.756681 -0.653784 870.388 28.5515)" fill="white"/>
<circle cx="0.858838" cy="0.858838" r="0.858838" transform="matrix(0.653784 0.756681 0.756681 -0.653784 780.056 106.599)" fill="white"/>
<circle cx="0.858838" cy="0.858838" r="0.858838" transform="matrix(0.653784 0.756681 0.756681 -0.653784 845.905 80.3479)" fill="white" fill-opacity="0.1"/>
<circle cx="0.858838" cy="0.858838" r="0.858838" transform="matrix(0.653784 0.756681 0.756681 -0.653784 882.849 -0.376007)" fill="white"/>
<circle cx="0.858838" cy="0.858838" r="0.858838" transform="matrix(0.653784 0.756681 0.756681 -0.653784 792.518 77.6721)" fill="white" fill-opacity="0.1"/>
<circle cx="0.858838" cy="0.858838" r="0.858838" transform="matrix(0.653784 0.756681 0.756681 -0.653784 833.948 119.055)" fill="white"/>
<circle cx="0.858838" cy="0.858838" r="0.858838" transform="matrix(0.653784 0.756681 0.756681 -0.653784 839.487 34.8242)" fill="#8C21FF"/>
<circle cx="0.858838" cy="0.858838" r="0.858838" transform="matrix(0.653784 0.756681 0.756681 -0.653784 749.155 112.872)" fill="white"/>
<circle cx="0.858838" cy="0.858838" r="0.858838" transform="matrix(0.653784 0.756681 0.756681 -0.653784 783.912 45.3806)" fill="white"/>
<circle cx="0.858838" cy="0.858838" r="0.858838" transform="matrix(0.653784 0.756681 0.756681 -0.653784 887.629 101.052)" fill="white"/>
<circle cx="0.858838" cy="0.858838" r="0.858838" transform="matrix(0.653784 0.756681 0.756681 -0.653784 811.025 -0.744316)" fill="white" fill-opacity="0.1"/>
<circle cx="0.858838" cy="0.858838" r="0.858838" transform="matrix(0.653784 0.756681 0.756681 -0.653784 720.694 77.3033)" fill="white"/>
<g clip-path="url(#clip13_347_2383)">
<circle cx="1.71768" cy="1.71768" r="1.71768" transform="matrix(0.653784 0.756681 0.756681 -0.653784 699.564 30.2439)" fill="white"/>
<circle cx="1.71768" cy="1.71768" r="1.71768" transform="matrix(0.653784 0.756681 0.756681 -0.653784 840.785 5.84099)" fill="white"/>
<circle cx="1.71768" cy="1.71768" r="1.71768" transform="matrix(0.653784 0.756681 0.756681 -0.653784 740.746 8.2846)" fill="white" fill-opacity="0.1"/>
<circle cx="1.71768" cy="1.71768" r="1.71768" transform="matrix(0.653784 0.756681 0.756681 -0.653784 792.572 15.7226)" fill="#8C21FF"/>
<circle cx="1.71768" cy="1.71768" r="1.71768" transform="matrix(0.653784 0.756681 0.756681 -0.653784 840.858 71.6084)" fill="white"/>
<circle cx="0.858838" cy="0.858838" r="0.858838" transform="matrix(0.653784 0.756681 0.756681 -0.653784 751.541 52.3064)" fill="white"/>
<circle cx="0.858838" cy="0.858838" r="0.858838" transform="matrix(0.653784 0.756681 0.756681 -0.653784 665.361 73.4179)" fill="white"/>
<circle cx="0.858838" cy="0.858838" r="0.858838" transform="matrix(0.653784 0.756681 0.756681 -0.653784 719.602 56.0634)" fill="white"/>
<circle cx="0.858838" cy="0.858838" r="0.858838" transform="matrix(0.653784 0.756681 0.756681 -0.653784 785.45 29.8119)" fill="white" fill-opacity="0.1"/>
<circle cx="0.858838" cy="0.858838" r="0.858838" transform="matrix(0.653784 0.756681 0.756681 -0.653784 732.063 27.1361)" fill="white" fill-opacity="0.1"/>
<circle cx="0.858838" cy="0.858838" r="0.858838" transform="matrix(0.653784 0.756681 0.756681 -0.653784 773.494 68.5193)" fill="white"/>
<circle cx="0.858838" cy="0.858838" r="0.858838" transform="matrix(0.653784 0.756681 0.756681 -0.653784 688.701 62.3361)" fill="white"/>
<circle cx="0.858838" cy="0.858838" r="0.858838" transform="matrix(0.653784 0.756681 0.756681 -0.653784 827.174 50.5165)" fill="white"/>
<circle cx="0.858838" cy="0.858838" r="0.858838" transform="matrix(0.653784 0.756681 0.756681 -0.653784 660.239 26.7673)" fill="white"/>
</g>
</g>
<g filter="url(#filter0_f_347_2383)">
<path d="M699.139 3L771.966 67.7392L399.197 487.078C381.319 507.188 350.524 508.999 330.414 491.122V491.122C310.303 473.244 308.492 442.449 326.37 422.339L699.139 3Z" fill="#D9D9D9"/>
</g>
<g filter="url(#filter1_f_347_2383)">
<path d="M752.778 -42.4966L825.605 22.2426L505.047 382.847C487.17 402.958 456.374 404.768 436.264 386.891V386.891C416.153 369.014 414.343 338.219 432.22 318.108L752.778 -42.4966Z" fill="#231499"/>
</g>
<g filter="url(#filter2_f_347_2383)">
<path d="M923.087 -95.6616L995.914 -30.9224L329.915 718.278C312.038 738.388 281.243 740.199 261.132 722.321V722.321C241.022 704.444 239.211 673.649 257.089 653.538L923.087 -95.6616Z" fill="#7711E5"/>
</g>
<g opacity="0.78">
<g opacity="0.78">
<g opacity="0.32">
<g clip-path="url(#clip14_347_2383)">
<circle cx="491.624" cy="365.811" r="1.09064" transform="rotate(132.83 491.624 365.811)" fill="white"/>
<circle cx="547.208" cy="417.331" r="1.09064" transform="rotate(132.83 547.208 417.331)" fill="white"/>
<circle cx="458.149" cy="398.716" r="1.09064" transform="rotate(132.83 458.149 398.716)" fill="white"/>
<circle cx="465.985" cy="350.962" r="1.09064" transform="rotate(132.83 465.985 350.962)" fill="white"/>
<circle cx="521.567" cy="402.485" r="1.09064" transform="rotate(132.83 521.567 402.485)" fill="white" fill-opacity="0.1"/>
<circle cx="488.519" cy="406.055" r="1.09064" transform="rotate(132.83 488.519 406.055)" fill="#8C21FF"/>
<circle cx="458.93" cy="378.624" r="0.545318" transform="rotate(132.83 458.93 378.624)" fill="white"/>
<circle cx="497.539" cy="338.578" r="0.545318" transform="rotate(132.83 497.539 338.578)" fill="white"/>
<circle cx="553.12" cy="390.1" r="0.545318" transform="rotate(132.83 553.12 390.1)" fill="white" fill-opacity="0.1"/>
<circle cx="513.14" cy="393.93" r="0.545318" transform="rotate(132.83 513.14 393.93)" fill="white"/>
<circle cx="479.111" cy="381.716" r="0.545318" transform="rotate(132.83 479.111 381.716)" fill="white"/>
<circle cx="493.496" cy="415.123" r="0.545318" transform="rotate(132.83 493.496 415.123)" fill="white" fill-opacity="0.1"/>
<circle cx="471.846" cy="363.086" r="0.545318" transform="rotate(132.83 471.846 363.086)" fill="white"/>
<circle cx="527.428" cy="414.609" r="0.545318" transform="rotate(132.83 527.428 414.609)" fill="white" fill-opacity="0.1"/>
<circle cx="498.578" cy="386.381" r="0.545318" transform="rotate(132.83 498.578 386.381)" fill="#8C21FF"/>
<circle cx="478.019" cy="342.791" r="0.545318" transform="rotate(132.83 478.019 342.791)" fill="white"/>
<circle cx="533.604" cy="394.312" r="0.545318" transform="rotate(132.83 533.604 394.312)" fill="white"/>
<circle cx="517.425" cy="364.445" r="0.545318" transform="rotate(132.83 517.425 364.445)" fill="white" fill-opacity="0.1"/>
<circle cx="573.007" cy="415.968" r="0.545318" transform="rotate(132.83 573.007 415.968)" fill="white"/>
</g>
</g>
<g opacity="0.32">
<g clip-path="url(#clip15_347_2383)">
<circle cx="465.266" cy="343.467" r="1.09064" transform="rotate(132.83 465.266 343.467)" fill="white"/>
<circle cx="520.85" cy="394.987" r="1.09064" transform="rotate(132.83 520.85 394.987)" fill="white"/>
<circle cx="431.791" cy="376.371" r="1.09064" transform="rotate(132.83 431.791 376.371)" fill="white"/>
<circle cx="439.627" cy="328.618" r="1.09064" transform="rotate(132.83 439.627 328.618)" fill="white"/>
<circle cx="495.209" cy="380.141" r="1.09064" transform="rotate(132.83 495.209 380.141)" fill="white" fill-opacity="0.1"/>
<circle cx="462.161" cy="383.71" r="1.09064" transform="rotate(132.83 462.161 383.71)" fill="#8C21FF"/>
<circle cx="432.572" cy="356.28" r="0.545318" transform="rotate(132.83 432.572 356.28)" fill="white"/>
<circle cx="471.181" cy="316.233" r="0.545318" transform="rotate(132.83 471.181 316.233)" fill="white"/>
<circle cx="526.763" cy="367.756" r="0.545318" transform="rotate(132.83 526.763 367.756)" fill="white" fill-opacity="0.1"/>
<circle cx="486.782" cy="371.586" r="0.545318" transform="rotate(132.83 486.782 371.586)" fill="white"/>
<circle cx="452.753" cy="359.372" r="0.545318" transform="rotate(132.83 452.753 359.372)" fill="white"/>
<circle cx="467.138" cy="392.778" r="0.545318" transform="rotate(132.83 467.138 392.778)" fill="white" fill-opacity="0.1"/>
<circle cx="445.488" cy="340.742" r="0.545318" transform="rotate(132.83 445.488 340.742)" fill="white"/>
<circle cx="501.07" cy="392.265" r="0.545318" transform="rotate(132.83 501.07 392.265)" fill="white" fill-opacity="0.1"/>
<circle cx="472.22" cy="364.037" r="0.545318" transform="rotate(132.83 472.22 364.037)" fill="#8C21FF"/>
<circle cx="451.661" cy="320.447" r="0.545318" transform="rotate(132.83 451.661 320.447)" fill="white"/>
<circle cx="507.246" cy="371.968" r="0.545318" transform="rotate(132.83 507.246 371.968)" fill="white"/>
<circle cx="491.066" cy="342.101" r="0.545318" transform="rotate(132.83 491.066 342.101)" fill="white" fill-opacity="0.1"/>
<circle cx="546.649" cy="393.624" r="0.545318" transform="rotate(132.83 546.649 393.624)" fill="white"/>
</g>
</g>
<g opacity="0.71">
<g clip-path="url(#clip16_347_2383)">
<circle cx="524.98" cy="319.084" r="1.22548" transform="rotate(132.83 524.98 319.084)" fill="white"/>
<circle cx="587.437" cy="376.974" r="1.22548" transform="rotate(132.83 587.437 376.974)" fill="white"/>
<circle cx="487.365" cy="356.057" r="1.22548" transform="rotate(132.83 487.365 356.057)" fill="white"/>
<circle cx="496.17" cy="302.4" r="1.22548" transform="rotate(132.83 496.17 302.4)" fill="white"/>
<circle cx="558.624" cy="360.293" r="1.22548" transform="rotate(132.83 558.624 360.293)" fill="white" fill-opacity="0.1"/>
<circle cx="521.491" cy="364.304" r="1.22548" transform="rotate(132.83 521.491 364.304)" fill="#8C21FF"/>
<circle cx="488.243" cy="333.482" r="0.61274" transform="rotate(132.83 488.243 333.482)" fill="white"/>
<circle cx="531.626" cy="288.484" r="0.61274" transform="rotate(132.83 531.626 288.484)" fill="white"/>
<circle cx="594.08" cy="346.377" r="0.61274" transform="rotate(132.83 594.08 346.377)" fill="white" fill-opacity="0.1"/>
<circle cx="549.156" cy="350.68" r="0.61274" transform="rotate(132.83 549.156 350.68)" fill="white"/>
<circle cx="510.92" cy="336.956" r="0.61274" transform="rotate(132.83 510.92 336.956)" fill="white"/>
<circle cx="527.083" cy="374.493" r="0.61274" transform="rotate(132.83 527.083 374.493)" fill="white" fill-opacity="0.1"/>
<circle cx="502.757" cy="316.023" r="0.61274" transform="rotate(132.83 502.757 316.023)" fill="white"/>
<circle cx="565.21" cy="373.916" r="0.61274" transform="rotate(132.83 565.21 373.916)" fill="white" fill-opacity="0.1"/>
<circle cx="532.793" cy="342.198" r="0.61274" transform="rotate(132.83 532.793 342.198)" fill="#8C21FF"/>
<circle cx="509.693" cy="293.219" r="0.61274" transform="rotate(132.83 509.693 293.219)" fill="white"/>
<circle cx="572.15" cy="351.109" r="0.61274" transform="rotate(132.83 572.15 351.109)" fill="white"/>
<circle cx="553.97" cy="317.55" r="0.61274" transform="rotate(132.83 553.97 317.55)" fill="white" fill-opacity="0.1"/>
<circle cx="616.424" cy="375.443" r="0.61274" transform="rotate(132.83 616.424 375.443)" fill="white"/>
</g>
</g>
<g opacity="0.71">
<g clip-path="url(#clip17_347_2383)">
<circle cx="498.021" cy="301.753" r="1.22548" transform="rotate(132.83 498.021 301.753)" fill="white"/>
<circle cx="560.477" cy="359.642" r="1.22548" transform="rotate(132.83 560.477 359.642)" fill="white"/>
<circle cx="460.406" cy="338.726" r="1.22548" transform="rotate(132.83 460.406 338.726)" fill="white"/>
<circle cx="469.211" cy="285.068" r="1.22548" transform="rotate(132.83 469.211 285.068)" fill="white"/>
<circle cx="531.665" cy="342.961" r="1.22548" transform="rotate(132.83 531.665 342.961)" fill="white" fill-opacity="0.1"/>
<circle cx="494.532" cy="346.972" r="1.22548" transform="rotate(132.83 494.532 346.972)" fill="#8C21FF"/>
<circle cx="461.283" cy="316.15" r="0.61274" transform="rotate(132.83 461.283 316.15)" fill="white"/>
<circle cx="504.666" cy="271.152" r="0.61274" transform="rotate(132.83 504.666 271.152)" fill="white"/>
<circle cx="567.12" cy="329.045" r="0.61274" transform="rotate(132.83 567.12 329.045)" fill="white" fill-opacity="0.1"/>
<circle cx="522.197" cy="333.349" r="0.61274" transform="rotate(132.83 522.197 333.349)" fill="white"/>
<circle cx="483.96" cy="319.624" r="0.61274" transform="rotate(132.83 483.96 319.624)" fill="white"/>
<circle cx="500.123" cy="357.161" r="0.61274" transform="rotate(132.83 500.123 357.161)" fill="white" fill-opacity="0.1"/>
<circle cx="475.797" cy="298.691" r="0.61274" transform="rotate(132.83 475.797 298.691)" fill="white"/>
<circle cx="538.251" cy="356.584" r="0.61274" transform="rotate(132.83 538.251 356.584)" fill="white" fill-opacity="0.1"/>
<circle cx="505.833" cy="324.866" r="0.61274" transform="rotate(132.83 505.833 324.866)" fill="#8C21FF"/>
<circle cx="482.734" cy="275.887" r="0.61274" transform="rotate(132.83 482.734 275.887)" fill="white"/>
<circle cx="545.191" cy="333.777" r="0.61274" transform="rotate(132.83 545.191 333.777)" fill="white"/>
<circle cx="527.011" cy="300.218" r="0.61274" transform="rotate(132.83 527.011 300.218)" fill="white" fill-opacity="0.1"/>
<circle cx="589.465" cy="358.111" r="0.61274" transform="rotate(132.83 589.465 358.111)" fill="white"/>
</g>
</g>
<g clip-path="url(#clip18_347_2383)">
<circle cx="531.772" cy="253.868" r="1.09064" transform="rotate(130.827 531.772 253.868)" fill="white"/>
<circle cx="589.122" cy="303.414" r="1.09064" transform="rotate(130.827 589.122 303.414)" fill="white"/>
<circle cx="499.467" cy="287.922" r="1.09064" transform="rotate(130.827 499.467 287.922)" fill="white"/>
<circle cx="505.63" cy="239.924" r="1.09064" transform="rotate(130.827 505.63 239.924)" fill="white"/>
<circle cx="562.977" cy="289.473" r="1.09064" transform="rotate(130.827 562.977 289.473)" fill="white" fill-opacity="0.1"/>
<circle cx="530.075" cy="294.195" r="1.09064" transform="rotate(130.827 530.075 294.195)" fill="#8C21FF"/>
<circle cx="499.42" cy="329.675" r="1.09064" transform="rotate(130.827 499.42 329.675)" fill="white"/>
<circle cx="499.545" cy="267.815" r="0.545318" transform="rotate(130.827 499.545 267.815)" fill="white"/>
<circle cx="556.893" cy="317.365" r="0.545318" transform="rotate(130.827 556.893 317.365)" fill="white"/>
<circle cx="536.732" cy="226.444" r="0.545318" transform="rotate(130.827 536.732 226.444)" fill="white"/>
<circle cx="594.08" cy="275.994" r="0.545318" transform="rotate(130.827 594.08 275.994)" fill="white" fill-opacity="0.1"/>
<circle cx="554.258" cy="281.218" r="0.545318" transform="rotate(130.827 554.258 281.218)" fill="white"/>
<circle cx="611.605" cy="330.768" r="0.545318" transform="rotate(130.827 611.605 330.768)" fill="white"/>
<circle cx="519.822" cy="270.2" r="0.545318" transform="rotate(130.827 519.822 270.2)" fill="white"/>
<circle cx="577.17" cy="319.75" r="0.545318" transform="rotate(130.827 577.17 319.75)" fill="white"/>
<circle cx="535.366" cy="303.084" r="0.545318" transform="rotate(130.827 535.366 303.084)" fill="white" fill-opacity="0.1"/>
<circle cx="511.911" cy="251.835" r="0.545318" transform="rotate(130.827 511.911 251.835)" fill="white"/>
<circle cx="569.259" cy="301.385" r="0.545318" transform="rotate(130.827 569.259 301.385)" fill="white" fill-opacity="0.1"/>
<circle cx="542.956" cy="327.658" r="0.545318" transform="rotate(130.827 542.956 327.658)" fill="white"/>
<circle cx="539.44" cy="274.183" r="0.545318" transform="rotate(130.827 539.44 274.183)" fill="#8C21FF"/>
<circle cx="596.788" cy="323.732" r="0.545318" transform="rotate(130.827 596.788 323.732)" fill="white"/>
<circle cx="517.371" cy="231.338" r="0.545318" transform="rotate(130.827 517.371 231.338)" fill="white"/>
<circle cx="574.723" cy="280.885" r="0.545318" transform="rotate(130.827 574.723 280.885)" fill="white"/>
<circle cx="508.876" cy="316.228" r="0.545318" transform="rotate(130.827 508.876 316.228)" fill="white"/>
<circle cx="557.509" cy="251.602" r="0.545318" transform="rotate(130.827 557.509 251.602)" fill="white" fill-opacity="0.1"/>
<circle cx="614.857" cy="301.151" r="0.545318" transform="rotate(130.827 614.857 301.151)" fill="white"/>
<g clip-path="url(#clip19_347_2383)">
<circle cx="570.153" cy="221.784" r="1.09064" transform="rotate(130.827 570.153 221.784)" fill="white"/>
<circle cx="627.503" cy="271.331" r="1.09064" transform="rotate(130.827 627.503 271.331)" fill="white"/>
<circle cx="537.847" cy="255.839" r="1.09064" transform="rotate(130.827 537.847 255.839)" fill="white"/>
<circle cx="544.01" cy="207.84" r="1.09064" transform="rotate(130.827 544.01 207.84)" fill="white"/>
<circle cx="601.358" cy="257.39" r="1.09064" transform="rotate(130.827 601.358 257.39)" fill="white" fill-opacity="0.1"/>
<circle cx="568.456" cy="262.112" r="1.09064" transform="rotate(130.827 568.456 262.112)" fill="#8C21FF"/>
<circle cx="537.801" cy="297.592" r="1.09064" transform="rotate(130.827 537.801 297.592)" fill="white"/>
<circle cx="537.926" cy="235.732" r="0.545318" transform="rotate(130.827 537.926 235.732)" fill="white"/>
<circle cx="595.274" cy="285.281" r="0.545318" transform="rotate(130.827 595.274 285.281)" fill="white"/>
<circle cx="575.113" cy="194.361" r="0.545318" transform="rotate(130.827 575.113 194.361)" fill="white"/>
<circle cx="632.461" cy="243.91" r="0.545318" transform="rotate(130.827 632.461 243.91)" fill="white" fill-opacity="0.1"/>
<circle cx="592.639" cy="249.135" r="0.545318" transform="rotate(130.827 592.639 249.135)" fill="white"/>
<circle cx="649.986" cy="298.684" r="0.545318" transform="rotate(130.827 649.986 298.684)" fill="white"/>
<circle cx="558.203" cy="238.117" r="0.545318" transform="rotate(130.827 558.203 238.117)" fill="white"/>
<circle cx="615.551" cy="287.667" r="0.545318" transform="rotate(130.827 615.551 287.667)" fill="white"/>
<circle cx="573.746" cy="271.001" r="0.545318" transform="rotate(130.827 573.746 271.001)" fill="white" fill-opacity="0.1"/>
<circle cx="550.292" cy="219.752" r="0.545318" transform="rotate(130.827 550.292 219.752)" fill="white"/>
<circle cx="607.64" cy="269.302" r="0.545318" transform="rotate(130.827 607.64 269.302)" fill="white" fill-opacity="0.1"/>
<circle cx="581.337" cy="295.574" r="0.545318" transform="rotate(130.827 581.337 295.574)" fill="white"/>
<circle cx="577.821" cy="242.099" r="0.545318" transform="rotate(130.827 577.821 242.099)" fill="#8C21FF"/>
<circle cx="635.169" cy="291.649" r="0.545318" transform="rotate(130.827 635.169 291.649)" fill="white"/>
<circle cx="555.752" cy="199.254" r="0.545318" transform="rotate(130.827 555.752 199.254)" fill="white"/>
<circle cx="613.103" cy="248.801" r="0.545318" transform="rotate(130.827 613.103 248.801)" fill="white"/>
<circle cx="547.257" cy="284.145" r="0.545318" transform="rotate(130.827 547.257 284.145)" fill="white"/>
<circle cx="595.89" cy="219.518" r="0.545318" transform="rotate(130.827 595.89 219.518)" fill="white" fill-opacity="0.1"/>
<circle cx="653.238" cy="269.068" r="0.545318" transform="rotate(130.827 653.238 269.068)" fill="white"/>
</g>
</g>
</g>
<g opacity="0.32">
<g clip-path="url(#clip20_347_2383)">
<circle cx="427.624" cy="337.811" r="1.09064" transform="rotate(132.83 427.624 337.811)" fill="white"/>
<circle cx="483.208" cy="389.331" r="1.09064" transform="rotate(132.83 483.208 389.331)" fill="white"/>
<circle cx="394.149" cy="370.716" r="1.09064" transform="rotate(132.83 394.149 370.716)" fill="white"/>
<circle cx="401.985" cy="322.962" r="1.09064" transform="rotate(132.83 401.985 322.962)" fill="white"/>
<circle cx="457.567" cy="374.485" r="1.09064" transform="rotate(132.83 457.567 374.485)" fill="white" fill-opacity="0.1"/>
<circle cx="424.519" cy="378.055" r="1.09064" transform="rotate(132.83 424.519 378.055)" fill="#8C21FF"/>
<circle cx="394.93" cy="350.624" r="0.545318" transform="rotate(132.83 394.93 350.624)" fill="white"/>
<circle cx="433.539" cy="310.578" r="0.545318" transform="rotate(132.83 433.539 310.578)" fill="white"/>
<circle cx="489.12" cy="362.1" r="0.545318" transform="rotate(132.83 489.12 362.1)" fill="white" fill-opacity="0.1"/>
<circle cx="449.14" cy="365.93" r="0.545318" transform="rotate(132.83 449.14 365.93)" fill="white"/>
<circle cx="415.111" cy="353.716" r="0.545318" transform="rotate(132.83 415.111 353.716)" fill="white"/>
<circle cx="429.496" cy="387.123" r="0.545318" transform="rotate(132.83 429.496 387.123)" fill="white" fill-opacity="0.1"/>
<circle cx="407.846" cy="335.086" r="0.545318" transform="rotate(132.83 407.846 335.086)" fill="white"/>
<circle cx="463.428" cy="386.609" r="0.545318" transform="rotate(132.83 463.428 386.609)" fill="white" fill-opacity="0.1"/>
<circle cx="434.578" cy="358.381" r="0.545318" transform="rotate(132.83 434.578 358.381)" fill="#8C21FF"/>
<circle cx="414.019" cy="314.791" r="0.545318" transform="rotate(132.83 414.019 314.791)" fill="white"/>
<circle cx="469.604" cy="366.312" r="0.545318" transform="rotate(132.83 469.604 366.312)" fill="white"/>
<circle cx="453.425" cy="336.445" r="0.545318" transform="rotate(132.83 453.425 336.445)" fill="white" fill-opacity="0.1"/>
<circle cx="509.007" cy="387.968" r="0.545318" transform="rotate(132.83 509.007 387.968)" fill="white"/>
</g>
</g>
<g opacity="0.32">
<g clip-path="url(#clip21_347_2383)">
<circle cx="401.266" cy="315.467" r="1.09064" transform="rotate(132.83 401.266 315.467)" fill="white"/>
<circle cx="456.85" cy="366.987" r="1.09064" transform="rotate(132.83 456.85 366.987)" fill="white"/>
<circle cx="367.791" cy="348.371" r="1.09064" transform="rotate(132.83 367.791 348.371)" fill="white"/>
<circle cx="375.627" cy="300.618" r="1.09064" transform="rotate(132.83 375.627 300.618)" fill="white"/>
<circle cx="431.209" cy="352.141" r="1.09064" transform="rotate(132.83 431.209 352.141)" fill="white" fill-opacity="0.1"/>
<circle cx="398.161" cy="355.71" r="1.09064" transform="rotate(132.83 398.161 355.71)" fill="#8C21FF"/>
<circle cx="368.572" cy="328.28" r="0.545318" transform="rotate(132.83 368.572 328.28)" fill="white"/>
<circle cx="407.181" cy="288.233" r="0.545318" transform="rotate(132.83 407.181 288.233)" fill="white"/>
<circle cx="462.763" cy="339.756" r="0.545318" transform="rotate(132.83 462.763 339.756)" fill="white" fill-opacity="0.1"/>
<circle cx="422.782" cy="343.586" r="0.545318" transform="rotate(132.83 422.782 343.586)" fill="white"/>
<circle cx="388.753" cy="331.372" r="0.545318" transform="rotate(132.83 388.753 331.372)" fill="white"/>
<circle cx="403.138" cy="364.778" r="0.545318" transform="rotate(132.83 403.138 364.778)" fill="white" fill-opacity="0.1"/>
<circle cx="381.488" cy="312.742" r="0.545318" transform="rotate(132.83 381.488 312.742)" fill="white"/>
<circle cx="437.07" cy="364.265" r="0.545318" transform="rotate(132.83 437.07 364.265)" fill="white" fill-opacity="0.1"/>
<circle cx="408.22" cy="336.037" r="0.545318" transform="rotate(132.83 408.22 336.037)" fill="#8C21FF"/>
<circle cx="387.661" cy="292.447" r="0.545318" transform="rotate(132.83 387.661 292.447)" fill="white"/>
<circle cx="443.246" cy="343.968" r="0.545318" transform="rotate(132.83 443.246 343.968)" fill="white"/>
<circle cx="427.066" cy="314.101" r="0.545318" transform="rotate(132.83 427.066 314.101)" fill="white" fill-opacity="0.1"/>
<circle cx="482.649" cy="365.624" r="0.545318" transform="rotate(132.83 482.649 365.624)" fill="white"/>
</g>
</g>
<g opacity="0.71">
<g clip-path="url(#clip22_347_2383)">
<circle cx="460.98" cy="291.084" r="1.22548" transform="rotate(132.83 460.98 291.084)" fill="white"/>
<circle cx="523.437" cy="348.974" r="1.22548" transform="rotate(132.83 523.437 348.974)" fill="white"/>
<circle cx="423.365" cy="328.057" r="1.22548" transform="rotate(132.83 423.365 328.057)" fill="white"/>
<circle cx="432.17" cy="274.4" r="1.22548" transform="rotate(132.83 432.17 274.4)" fill="white"/>
<circle cx="494.624" cy="332.293" r="1.22548" transform="rotate(132.83 494.624 332.293)" fill="white" fill-opacity="0.1"/>
<circle cx="457.491" cy="336.304" r="1.22548" transform="rotate(132.83 457.491 336.304)" fill="#8C21FF"/>
<circle cx="424.243" cy="305.482" r="0.61274" transform="rotate(132.83 424.243 305.482)" fill="white"/>
<circle cx="467.626" cy="260.484" r="0.61274" transform="rotate(132.83 467.626 260.484)" fill="white"/>
<circle cx="530.08" cy="318.377" r="0.61274" transform="rotate(132.83 530.08 318.377)" fill="white" fill-opacity="0.1"/>
<circle cx="485.156" cy="322.68" r="0.61274" transform="rotate(132.83 485.156 322.68)" fill="white"/>
<circle cx="446.92" cy="308.956" r="0.61274" transform="rotate(132.83 446.92 308.956)" fill="white"/>
<circle cx="463.083" cy="346.493" r="0.61274" transform="rotate(132.83 463.083 346.493)" fill="white" fill-opacity="0.1"/>
<circle cx="438.757" cy="288.023" r="0.61274" transform="rotate(132.83 438.757 288.023)" fill="white"/>
<circle cx="501.21" cy="345.916" r="0.61274" transform="rotate(132.83 501.21 345.916)" fill="white" fill-opacity="0.1"/>
<circle cx="468.793" cy="314.198" r="0.61274" transform="rotate(132.83 468.793 314.198)" fill="#8C21FF"/>
<circle cx="445.693" cy="265.219" r="0.61274" transform="rotate(132.83 445.693 265.219)" fill="white"/>
<circle cx="508.15" cy="323.109" r="0.61274" transform="rotate(132.83 508.15 323.109)" fill="white"/>
<circle cx="489.97" cy="289.55" r="0.61274" transform="rotate(132.83 489.97 289.55)" fill="white" fill-opacity="0.1"/>
<circle cx="552.424" cy="347.443" r="0.61274" transform="rotate(132.83 552.424 347.443)" fill="white"/>
</g>
</g>
<g opacity="0.71">
<g clip-path="url(#clip23_347_2383)">
<circle cx="434.021" cy="273.753" r="1.22548" transform="rotate(132.83 434.021 273.753)" fill="white"/>
<circle cx="496.477" cy="331.642" r="1.22548" transform="rotate(132.83 496.477 331.642)" fill="white"/>
<circle cx="396.406" cy="310.726" r="1.22548" transform="rotate(132.83 396.406 310.726)" fill="white"/>
<circle cx="405.211" cy="257.068" r="1.22548" transform="rotate(132.83 405.211 257.068)" fill="white"/>
<circle cx="467.665" cy="314.961" r="1.22548" transform="rotate(132.83 467.665 314.961)" fill="white" fill-opacity="0.1"/>
<circle cx="430.532" cy="318.972" r="1.22548" transform="rotate(132.83 430.532 318.972)" fill="#8C21FF"/>
<circle cx="397.283" cy="288.15" r="0.61274" transform="rotate(132.83 397.283 288.15)" fill="white"/>
<circle cx="440.666" cy="243.152" r="0.61274" transform="rotate(132.83 440.666 243.152)" fill="white"/>
<circle cx="503.12" cy="301.045" r="0.61274" transform="rotate(132.83 503.12 301.045)" fill="white" fill-opacity="0.1"/>
<circle cx="458.197" cy="305.349" r="0.61274" transform="rotate(132.83 458.197 305.349)" fill="white"/>
<circle cx="419.96" cy="291.624" r="0.61274" transform="rotate(132.83 419.96 291.624)" fill="white"/>
<circle cx="436.123" cy="329.161" r="0.61274" transform="rotate(132.83 436.123 329.161)" fill="white" fill-opacity="0.1"/>
<circle cx="411.797" cy="270.691" r="0.61274" transform="rotate(132.83 411.797 270.691)" fill="white"/>
<circle cx="474.251" cy="328.584" r="0.61274" transform="rotate(132.83 474.251 328.584)" fill="white" fill-opacity="0.1"/>
<circle cx="441.833" cy="296.866" r="0.61274" transform="rotate(132.83 441.833 296.866)" fill="#8C21FF"/>
<circle cx="418.734" cy="247.887" r="0.61274" transform="rotate(132.83 418.734 247.887)" fill="white"/>
<circle cx="481.191" cy="305.777" r="0.61274" transform="rotate(132.83 481.191 305.777)" fill="white"/>
<circle cx="463.011" cy="272.218" r="0.61274" transform="rotate(132.83 463.011 272.218)" fill="white" fill-opacity="0.1"/>
<circle cx="525.465" cy="330.111" r="0.61274" transform="rotate(132.83 525.465 330.111)" fill="white"/>
</g>
</g>
<g opacity="0.74">
<g opacity="0.32">
<g clip-path="url(#clip24_347_2383)">
<circle cx="381.608" cy="408.778" r="1.09064" transform="rotate(132.83 381.608 408.778)" fill="white"/>
<circle cx="437.192" cy="460.298" r="1.09064" transform="rotate(132.83 437.192 460.298)" fill="white"/>
<circle cx="348.132" cy="441.683" r="1.09064" transform="rotate(132.83 348.132 441.683)" fill="white"/>
<circle cx="355.968" cy="393.93" r="1.09064" transform="rotate(132.83 355.968 393.93)" fill="white"/>
<circle cx="411.55" cy="445.452" r="1.09064" transform="rotate(132.83 411.55 445.452)" fill="white" fill-opacity="0.1"/>
<circle cx="378.503" cy="449.022" r="1.09064" transform="rotate(132.83 378.503 449.022)" fill="#616161"/>
<circle cx="348.913" cy="421.592" r="0.545318" transform="rotate(132.83 348.913 421.592)" fill="white"/>
<circle cx="387.522" cy="381.545" r="0.545318" transform="rotate(132.83 387.522 381.545)" fill="white"/>
<circle cx="443.104" cy="433.068" r="0.545318" transform="rotate(132.83 443.104 433.068)" fill="white" fill-opacity="0.1"/>
<circle cx="403.123" cy="436.898" r="0.545318" transform="rotate(132.83 403.123 436.898)" fill="white"/>
<circle cx="369.094" cy="424.684" r="0.545318" transform="rotate(132.83 369.094 424.684)" fill="white"/>
<circle cx="383.479" cy="458.09" r="0.545318" transform="rotate(132.83 383.479 458.09)" fill="white" fill-opacity="0.1"/>
<circle cx="361.829" cy="406.053" r="0.545318" transform="rotate(132.83 361.829 406.053)" fill="white"/>
<circle cx="417.411" cy="457.576" r="0.545318" transform="rotate(132.83 417.411 457.576)" fill="white" fill-opacity="0.1"/>
<circle cx="388.561" cy="429.349" r="0.545318" transform="rotate(132.83 388.561 429.349)" fill="#616161"/>
<circle cx="368.003" cy="385.759" r="0.545318" transform="rotate(132.83 368.003 385.759)" fill="white"/>
<circle cx="423.588" cy="437.279" r="0.545318" transform="rotate(132.83 423.588 437.279)" fill="white"/>
<circle cx="407.408" cy="407.413" r="0.545318" transform="rotate(132.83 407.408 407.413)" fill="white" fill-opacity="0.1"/>
<circle cx="462.99" cy="458.935" r="0.545318" transform="rotate(132.83 462.99 458.935)" fill="white"/>
</g>
</g>
<g opacity="0.32">
<g clip-path="url(#clip25_347_2383)">
<circle cx="355.25" cy="386.434" r="1.09064" transform="rotate(132.83 355.25 386.434)" fill="white"/>
<circle cx="410.834" cy="437.954" r="1.09064" transform="rotate(132.83 410.834 437.954)" fill="white"/>
<circle cx="321.774" cy="419.339" r="1.09064" transform="rotate(132.83 321.774 419.339)" fill="white"/>
<circle cx="329.61" cy="371.585" r="1.09064" transform="rotate(132.83 329.61 371.585)" fill="white"/>
<circle cx="385.192" cy="423.108" r="1.09064" transform="rotate(132.83 385.192 423.108)" fill="white" fill-opacity="0.1"/>
<circle cx="352.145" cy="426.678" r="1.09064" transform="rotate(132.83 352.145 426.678)" fill="#616161"/>
<circle cx="322.555" cy="399.247" r="0.545318" transform="rotate(132.83 322.555 399.247)" fill="white"/>
<circle cx="361.164" cy="359.201" r="0.545318" transform="rotate(132.83 361.164 359.201)" fill="white"/>
<circle cx="416.746" cy="410.724" r="0.545318" transform="rotate(132.83 416.746 410.724)" fill="white" fill-opacity="0.1"/>
<circle cx="376.766" cy="414.554" r="0.545318" transform="rotate(132.83 376.766 414.554)" fill="white"/>
<circle cx="342.736" cy="402.339" r="0.545318" transform="rotate(132.83 342.736 402.339)" fill="white"/>
<circle cx="357.121" cy="435.746" r="0.545318" transform="rotate(132.83 357.121 435.746)" fill="white" fill-opacity="0.1"/>
<circle cx="335.472" cy="383.709" r="0.545318" transform="rotate(132.83 335.472 383.709)" fill="white"/>
<circle cx="391.054" cy="435.232" r="0.545318" transform="rotate(132.83 391.054 435.232)" fill="white" fill-opacity="0.1"/>
<circle cx="362.203" cy="407.005" r="0.545318" transform="rotate(132.83 362.203 407.005)" fill="#616161"/>
<circle cx="341.645" cy="363.415" r="0.545318" transform="rotate(132.83 341.645 363.415)" fill="white"/>
<circle cx="397.23" cy="414.935" r="0.545318" transform="rotate(132.83 397.23 414.935)" fill="white"/>
<circle cx="381.05" cy="385.069" r="0.545318" transform="rotate(132.83 381.05 385.069)" fill="white" fill-opacity="0.1"/>
<circle cx="436.632" cy="436.591" r="0.545318" transform="rotate(132.83 436.632 436.591)" fill="white"/>
</g>
</g>
<g opacity="0.71">
<g clip-path="url(#clip26_347_2383)">
<circle cx="414.963" cy="362.052" r="1.22548" transform="rotate(132.83 414.963 362.052)" fill="white"/>
<circle cx="477.42" cy="419.941" r="1.22548" transform="rotate(132.83 477.42 419.941)" fill="white"/>
<circle cx="377.349" cy="399.025" r="1.22548" transform="rotate(132.83 377.349 399.025)" fill="white"/>
<circle cx="386.153" cy="345.367" r="1.22548" transform="rotate(132.83 386.153 345.367)" fill="white"/>
<circle cx="448.608" cy="403.26" r="1.22548" transform="rotate(132.83 448.608 403.26)" fill="white" fill-opacity="0.1"/>
<circle cx="411.474" cy="407.271" r="1.22548" transform="rotate(132.83 411.474 407.271)" fill="#616161"/>
<circle cx="378.226" cy="376.449" r="0.61274" transform="rotate(132.83 378.226 376.449)" fill="white"/>
<circle cx="421.609" cy="331.451" r="0.61274" transform="rotate(132.83 421.609 331.451)" fill="white"/>
<circle cx="484.063" cy="389.344" r="0.61274" transform="rotate(132.83 484.063 389.344)" fill="white" fill-opacity="0.1"/>
<circle cx="439.139" cy="393.648" r="0.61274" transform="rotate(132.83 439.139 393.648)" fill="white"/>
<circle cx="400.903" cy="379.923" r="0.61274" transform="rotate(132.83 400.903 379.923)" fill="white"/>
<circle cx="417.066" cy="417.46" r="0.61274" transform="rotate(132.83 417.066 417.46)" fill="white" fill-opacity="0.1"/>
<circle cx="392.74" cy="358.99" r="0.61274" transform="rotate(132.83 392.74 358.99)" fill="white"/>
<circle cx="455.194" cy="416.883" r="0.61274" transform="rotate(132.83 455.194 416.883)" fill="white" fill-opacity="0.1"/>
<circle cx="422.776" cy="385.165" r="0.61274" transform="rotate(132.83 422.776 385.165)" fill="#616161"/>
<circle cx="399.677" cy="336.186" r="0.61274" transform="rotate(132.83 399.677 336.186)" fill="white"/>
<circle cx="462.134" cy="394.076" r="0.61274" transform="rotate(132.83 462.134 394.076)" fill="white"/>
<circle cx="443.953" cy="360.517" r="0.61274" transform="rotate(132.83 443.953 360.517)" fill="white" fill-opacity="0.1"/>
<circle cx="506.408" cy="418.41" r="0.61274" transform="rotate(132.83 506.408 418.41)" fill="white"/>
</g>
</g>
<g opacity="0.71">
<g clip-path="url(#clip27_347_2383)">
<circle cx="388.004" cy="344.72" r="1.22548" transform="rotate(132.83 388.004 344.72)" fill="white"/>
<circle cx="450.461" cy="402.61" r="1.22548" transform="rotate(132.83 450.461 402.61)" fill="white"/>
<circle cx="350.389" cy="381.693" r="1.22548" transform="rotate(132.83 350.389 381.693)" fill="white"/>
<circle cx="359.194" cy="328.035" r="1.22548" transform="rotate(132.83 359.194 328.035)" fill="white"/>
<circle cx="421.648" cy="385.928" r="1.22548" transform="rotate(132.83 421.648 385.928)" fill="white" fill-opacity="0.1"/>
<circle cx="384.515" cy="389.939" r="1.22548" transform="rotate(132.83 384.515 389.939)" fill="#616161"/>
<circle cx="351.267" cy="359.118" r="0.61274" transform="rotate(132.83 351.267 359.118)" fill="white"/>
<circle cx="394.65" cy="314.12" r="0.61274" transform="rotate(132.83 394.65 314.12)" fill="white"/>
<circle cx="457.104" cy="372.012" r="0.61274" transform="rotate(132.83 457.104 372.012)" fill="white" fill-opacity="0.1"/>
<circle cx="412.18" cy="376.316" r="0.61274" transform="rotate(132.83 412.18 376.316)" fill="white"/>
<circle cx="373.944" cy="362.592" r="0.61274" transform="rotate(132.83 373.944 362.592)" fill="white"/>
<circle cx="390.107" cy="400.129" r="0.61274" transform="rotate(132.83 390.107 400.129)" fill="white" fill-opacity="0.1"/>
<circle cx="365.781" cy="341.658" r="0.61274" transform="rotate(132.83 365.781 341.658)" fill="white"/>
<circle cx="428.234" cy="399.551" r="0.61274" transform="rotate(132.83 428.234 399.551)" fill="white" fill-opacity="0.1"/>
<circle cx="395.817" cy="367.834" r="0.61274" transform="rotate(132.83 395.817 367.834)" fill="#616161"/>
<circle cx="372.717" cy="318.854" r="0.61274" transform="rotate(132.83 372.717 318.854)" fill="white"/>
<circle cx="435.174" cy="376.745" r="0.61274" transform="rotate(132.83 435.174 376.745)" fill="white"/>
<circle cx="416.994" cy="343.186" r="0.61274" transform="rotate(132.83 416.994 343.186)" fill="white" fill-opacity="0.1"/>
<circle cx="479.448" cy="401.078" r="0.61274" transform="rotate(132.83 479.448 401.078)" fill="white"/>
</g>
</g>
</g>
<g clip-path="url(#clip28_347_2383)">
<circle cx="467.772" cy="225.868" r="1.09064" transform="rotate(130.827 467.772 225.868)" fill="white"/>
<circle cx="525.122" cy="275.414" r="1.09064" transform="rotate(130.827 525.122 275.414)" fill="white"/>
<circle cx="435.467" cy="259.922" r="1.09064" transform="rotate(130.827 435.467 259.922)" fill="white"/>
<circle cx="441.63" cy="211.924" r="1.09064" transform="rotate(130.827 441.63 211.924)" fill="white"/>
<circle cx="498.977" cy="261.473" r="1.09064" transform="rotate(130.827 498.977 261.473)" fill="white" fill-opacity="0.1"/>
<circle cx="466.075" cy="266.195" r="1.09064" transform="rotate(130.827 466.075 266.195)" fill="#8C21FF"/>
<circle cx="435.42" cy="301.675" r="1.09064" transform="rotate(130.827 435.42 301.675)" fill="white"/>
<circle cx="435.545" cy="239.815" r="0.545318" transform="rotate(130.827 435.545 239.815)" fill="white"/>
<circle cx="492.893" cy="289.365" r="0.545318" transform="rotate(130.827 492.893 289.365)" fill="white"/>
<circle cx="472.732" cy="198.444" r="0.545318" transform="rotate(130.827 472.732 198.444)" fill="white"/>
<circle cx="530.08" cy="247.994" r="0.545318" transform="rotate(130.827 530.08 247.994)" fill="white" fill-opacity="0.1"/>
<circle cx="490.258" cy="253.218" r="0.545318" transform="rotate(130.827 490.258 253.218)" fill="white"/>
<circle cx="547.605" cy="302.768" r="0.545318" transform="rotate(130.827 547.605 302.768)" fill="white"/>
<circle cx="455.822" cy="242.2" r="0.545318" transform="rotate(130.827 455.822 242.2)" fill="white"/>
<circle cx="513.17" cy="291.75" r="0.545318" transform="rotate(130.827 513.17 291.75)" fill="white"/>
<circle cx="471.366" cy="275.084" r="0.545318" transform="rotate(130.827 471.366 275.084)" fill="white" fill-opacity="0.1"/>
<circle cx="447.911" cy="223.835" r="0.545318" transform="rotate(130.827 447.911 223.835)" fill="white"/>
<circle cx="505.259" cy="273.385" r="0.545318" transform="rotate(130.827 505.259 273.385)" fill="white" fill-opacity="0.1"/>
<circle cx="478.956" cy="299.658" r="0.545318" transform="rotate(130.827 478.956 299.658)" fill="white"/>
<circle cx="475.44" cy="246.183" r="0.545318" transform="rotate(130.827 475.44 246.183)" fill="#8C21FF"/>
<circle cx="532.788" cy="295.732" r="0.545318" transform="rotate(130.827 532.788 295.732)" fill="white"/>
<circle cx="453.371" cy="203.338" r="0.545318" transform="rotate(130.827 453.371 203.338)" fill="white"/>
<circle cx="510.723" cy="252.885" r="0.545318" transform="rotate(130.827 510.723 252.885)" fill="white"/>
<circle cx="444.876" cy="288.228" r="0.545318" transform="rotate(130.827 444.876 288.228)" fill="white"/>
<circle cx="493.509" cy="223.602" r="0.545318" transform="rotate(130.827 493.509 223.602)" fill="white" fill-opacity="0.1"/>
<circle cx="550.857" cy="273.151" r="0.545318" transform="rotate(130.827 550.857 273.151)" fill="white"/>
<g clip-path="url(#clip29_347_2383)">
<circle cx="506.153" cy="193.784" r="1.09064" transform="rotate(130.827 506.153 193.784)" fill="white"/>
<circle cx="563.503" cy="243.331" r="1.09064" transform="rotate(130.827 563.503 243.331)" fill="white"/>
<circle cx="473.847" cy="227.838" r="1.09064" transform="rotate(130.827 473.847 227.838)" fill="white"/>
<circle cx="480.011" cy="179.84" r="1.09064" transform="rotate(130.827 480.011 179.84)" fill="white"/>
<circle cx="537.358" cy="229.39" r="1.09064" transform="rotate(130.827 537.358 229.39)" fill="white" fill-opacity="0.1"/>
<circle cx="504.456" cy="234.112" r="1.09064" transform="rotate(130.827 504.456 234.112)" fill="#8C21FF"/>
<circle cx="473.801" cy="269.592" r="1.09064" transform="rotate(130.827 473.801 269.592)" fill="white"/>
<circle cx="473.926" cy="207.732" r="0.545318" transform="rotate(130.827 473.926 207.732)" fill="white"/>
<circle cx="531.274" cy="257.281" r="0.545318" transform="rotate(130.827 531.274 257.281)" fill="white"/>
<circle cx="511.113" cy="166.361" r="0.545318" transform="rotate(130.827 511.113 166.361)" fill="white"/>
<circle cx="568.461" cy="215.91" r="0.545318" transform="rotate(130.827 568.461 215.91)" fill="white" fill-opacity="0.1"/>
<circle cx="528.639" cy="221.135" r="0.545318" transform="rotate(130.827 528.639 221.135)" fill="white"/>
<circle cx="585.986" cy="270.684" r="0.545318" transform="rotate(130.827 585.986 270.684)" fill="white"/>
<circle cx="494.203" cy="210.117" r="0.545318" transform="rotate(130.827 494.203 210.117)" fill="white"/>
<circle cx="551.551" cy="259.667" r="0.545318" transform="rotate(130.827 551.551 259.667)" fill="white"/>
<circle cx="509.746" cy="243.001" r="0.545318" transform="rotate(130.827 509.746 243.001)" fill="white" fill-opacity="0.1"/>
<circle cx="486.292" cy="191.752" r="0.545318" transform="rotate(130.827 486.292 191.752)" fill="white"/>
<circle cx="543.64" cy="241.302" r="0.545318" transform="rotate(130.827 543.64 241.302)" fill="white" fill-opacity="0.1"/>
<circle cx="517.337" cy="267.574" r="0.545318" transform="rotate(130.827 517.337 267.574)" fill="white"/>
<circle cx="513.821" cy="214.099" r="0.545318" transform="rotate(130.827 513.821 214.099)" fill="#8C21FF"/>
<circle cx="571.169" cy="263.649" r="0.545318" transform="rotate(130.827 571.169 263.649)" fill="white"/>
<circle cx="491.752" cy="171.254" r="0.545318" transform="rotate(130.827 491.752 171.254)" fill="white"/>
<circle cx="549.103" cy="220.801" r="0.545318" transform="rotate(130.827 549.103 220.801)" fill="white"/>
<circle cx="483.257" cy="256.145" r="0.545318" transform="rotate(130.827 483.257 256.145)" fill="white"/>
<circle cx="531.89" cy="191.518" r="0.545318" transform="rotate(130.827 531.89 191.518)" fill="white" fill-opacity="0.1"/>
<circle cx="589.238" cy="241.068" r="0.545318" transform="rotate(130.827 589.238 241.068)" fill="white"/>
</g>
</g>
</g>
<defs>
<filter id="filter0_f_347_2383" x="-5.93848" y="-317" width="1097.9" height="1140.43" filterUnits="userSpaceOnUse" color-interpolation-filters="sRGB">
<feFlood flood-opacity="0" result="BackgroundImageFix"/>
<feBlend mode="normal" in="SourceGraphic" in2="BackgroundImageFix" result="shape"/>
<feGaussianBlur stdDeviation="160" result="effect1_foregroundBlur_347_2383"/>
</filter>
<filter id="filter1_f_347_2383" x="117.052" y="-345.356" width="1011.41" height="1047.42" filterUnits="userSpaceOnUse" color-interpolation-filters="sRGB">
<feFlood flood-opacity="0" result="BackgroundImageFix"/>
<feBlend mode="normal" in="SourceGraphic" in2="BackgroundImageFix" result="shape"/>
<feGaussianBlur stdDeviation="151.43" result="effect1_foregroundBlur_347_2383"/>
</filter>
<filter id="filter2_f_347_2383" x="-44.9113" y="-385.354" width="1330.52" height="1409.68" filterUnits="userSpaceOnUse" color-interpolation-filters="sRGB">
<feFlood flood-opacity="0" result="BackgroundImageFix"/>
<feBlend mode="normal" in="SourceGraphic" in2="BackgroundImageFix" result="shape"/>
<feGaussianBlur stdDeviation="144.846" result="effect1_foregroundBlur_347_2383"/>
</filter>
<clipPath id="clip0_347_2383">
<rect x="507.636" y="228.232" width="379.912" height="58.7426" rx="29.3713" transform="rotate(-47.1704 507.636 228.232)" fill="white"/>
</clipPath>
<clipPath id="clip1_347_2383">
<rect x="466.119" y="193.037" width="379.912" height="58.7426" rx="29.3713" transform="rotate(-47.1704 466.119 193.037)" fill="white"/>
</clipPath>
<clipPath id="clip2_347_2383">
<rect x="553.791" y="160.688" width="426.884" height="66.0054" rx="33.0027" transform="rotate(-47.1704 553.791 160.688)" fill="white"/>
</clipPath>
<clipPath id="clip3_347_2383">
<rect x="511.325" y="133.388" width="426.884" height="66.0054" rx="33.0027" transform="rotate(-47.1704 511.325 133.388)" fill="white"/>
</clipPath>
<clipPath id="clip4_347_2383">
<rect x="603.832" y="243.914" width="241.192" height="37.2934" rx="18.6467" transform="rotate(-47.1704 603.832 243.914)" fill="white"/>
</clipPath>
<clipPath id="clip5_347_2383">
<rect x="577.474" y="221.57" width="241.192" height="37.2934" rx="18.6467" transform="rotate(-47.1704 577.474 221.57)" fill="white"/>
</clipPath>
<clipPath id="clip6_347_2383">
<rect x="633.133" y="201.033" width="271.012" height="41.9043" rx="20.9522" transform="rotate(-47.1704 633.133 201.033)" fill="white"/>
</clipPath>
<clipPath id="clip7_347_2383">
<rect x="606.173" y="183.701" width="271.012" height="41.9043" rx="20.9522" transform="rotate(-47.1704 606.173 183.701)" fill="white"/>
</clipPath>
<clipPath id="clip8_347_2383">
<rect x="645.086" y="133.097" width="235.006" height="73.8807" rx="19.3449" transform="rotate(-49.1725 645.086 133.097)" fill="white"/>
</clipPath>
<clipPath id="clip9_347_2383">
<rect x="683.467" y="101.014" width="226.741" height="69.6418" rx="19.3449" transform="rotate(-49.1725 683.467 101.014)" fill="white"/>
</clipPath>
<clipPath id="clip10_347_2383">
<rect x="572.619" y="53.6799" width="370.169" height="116.373" rx="30.4711" transform="rotate(-49.1725 572.619 53.6799)" fill="white"/>
</clipPath>
<clipPath id="clip11_347_2383">
<rect x="633.073" y="3.14385" width="357.151" height="109.696" rx="30.4711" transform="rotate(-49.1725 633.073 3.14385)" fill="white"/>
</clipPath>
<clipPath id="clip12_347_2383">
<rect width="370.169" height="116.373" rx="30.4711" transform="matrix(-0.653784 -0.756681 -0.756681 0.653784 902.687 53.6799)" fill="white"/>
</clipPath>
<clipPath id="clip13_347_2383">
<rect width="357.151" height="109.696" rx="30.4711" transform="matrix(-0.653784 -0.756681 -0.756681 0.653784 842.232 3.14384)" fill="white"/>
</clipPath>
<clipPath id="clip14_347_2383">
<rect x="458.832" y="396.914" width="241.192" height="37.2934" rx="18.6467" transform="rotate(-47.1704 458.832 396.914)" fill="white"/>
</clipPath>
<clipPath id="clip15_347_2383">
<rect x="432.474" y="374.57" width="241.192" height="37.2934" rx="18.6467" transform="rotate(-47.1704 432.474 374.57)" fill="white"/>
</clipPath>
<clipPath id="clip16_347_2383">
<rect x="488.133" y="354.033" width="271.012" height="41.9043" rx="20.9522" transform="rotate(-47.1704 488.133 354.033)" fill="white"/>
</clipPath>
<clipPath id="clip17_347_2383">
<rect x="461.173" y="336.701" width="271.012" height="41.9043" rx="20.9522" transform="rotate(-47.1704 461.173 336.701)" fill="white"/>
</clipPath>
<clipPath id="clip18_347_2383">
<rect x="500.086" y="286.097" width="235.006" height="73.8807" rx="19.3449" transform="rotate(-49.1725 500.086 286.097)" fill="white"/>
</clipPath>
<clipPath id="clip19_347_2383">
<rect x="538.467" y="254.014" width="226.741" height="69.6418" rx="19.3449" transform="rotate(-49.1725 538.467 254.014)" fill="white"/>
</clipPath>
<clipPath id="clip20_347_2383">
<rect x="394.832" y="368.914" width="241.192" height="37.2934" rx="18.6467" transform="rotate(-47.1704 394.832 368.914)" fill="white"/>
</clipPath>
<clipPath id="clip21_347_2383">
<rect x="368.474" y="346.57" width="241.192" height="37.2934" rx="18.6467" transform="rotate(-47.1704 368.474 346.57)" fill="white"/>
</clipPath>
<clipPath id="clip22_347_2383">
<rect x="424.133" y="326.033" width="271.012" height="41.9043" rx="20.9522" transform="rotate(-47.1704 424.133 326.033)" fill="white"/>
</clipPath>
<clipPath id="clip23_347_2383">
<rect x="397.173" y="308.701" width="271.012" height="41.9043" rx="20.9522" transform="rotate(-47.1704 397.173 308.701)" fill="white"/>
</clipPath>
<clipPath id="clip24_347_2383">
<rect x="348.815" y="439.881" width="241.192" height="37.2934" rx="18.6467" transform="rotate(-47.1704 348.815 439.881)" fill="white"/>
</clipPath>
<clipPath id="clip25_347_2383">
<rect x="322.457" y="417.537" width="241.192" height="37.2934" rx="18.6467" transform="rotate(-47.1704 322.457 417.537)" fill="white"/>
</clipPath>
<clipPath id="clip26_347_2383">
<rect x="378.116" y="397" width="271.012" height="41.9043" rx="20.9522" transform="rotate(-47.1704 378.116 397)" fill="white"/>
</clipPath>
<clipPath id="clip27_347_2383">
<rect x="351.157" y="379.669" width="271.012" height="41.9043" rx="20.9522" transform="rotate(-47.1704 351.157 379.669)" fill="white"/>
</clipPath>
<clipPath id="clip28_347_2383">
<rect x="436.086" y="258.097" width="235.006" height="73.8807" rx="19.3449" transform="rotate(-49.1725 436.086 258.097)" fill="white"/>
</clipPath>
<clipPath id="clip29_347_2383">
<rect x="474.467" y="226.014" width="226.741" height="69.6418" rx="19.3449" transform="rotate(-49.1725 474.467 226.014)" fill="white"/>
</clipPath>
</defs>
</svg>
